<svg xmlns="http://www.w3.org/2000/svg" width="700" height="360" viewBox="0 0 700 360" role="img" aria-labelledby="title desc">
  <title id="title">Montessori principles for preschool children</title>
  <desc id="desc">A calm Montessori classroom with children choosing educational materials.</desc>
  <rect width="700" height="360" fill="#f8efe4"/>
  <rect x="48" y="220" width="604" height="58" rx="18" fill="#d8b48a"/>
  <rect x="88" y="74" width="150" height="146" rx="12" fill="#fffaf3" stroke="#b8783c" stroke-width="5"/>
  <rect x="260" y="74" width="180" height="146" rx="12" fill="#fffaf3" stroke="#b8783c" stroke-width="5"/>
  <rect x="462" y="74" width="150" height="146" rx="12" fill="#fffaf3" stroke="#b8783c" stroke-width="5"/>
  <circle cx="163" cy="136" r="28" fill="#f4c39c"/>
  <circle cx="350" cy="136" r="28" fill="#f4c39c"/>
  <circle cx="537" cy="136" r="28" fill="#f4c39c"/>
  <rect x="122" y="174" width="82" height="36" rx="18" fill="#9dc7b6"/>
  <rect x="309" y="174" width="82" height="36" rx="18" fill="#c98b5f"/>
  <rect x="496" y="174" width="82" height="36" rx="18" fill="#8fa9d6"/>
  <rect x="130" y="250" width="440" height="18" rx="9" fill="#b8783c" opacity=".55"/>
  <circle cx="178" cy="259" r="10" fill="#6f9d83"/>
  <circle cx="260" cy="259" r="10" fill="#d59a54"/>
  <circle cx="342" cy="259" r="10" fill="#8fa9d6"/>
  <circle cx="424" cy="259" r="10" fill="#c98b5f"/>
  <circle cx="506" cy="259" r="10" fill="#6f9d83"/>
</svg>
