<svg xmlns="http://www.w3.org/2000/svg" width="700" height="360" viewBox="0 0 700 360" role="img" aria-labelledby="title desc">
  <title id="title">Montessori home environment</title>
  <desc id="desc">A simple home corner with accessible shelves, clothes hook and daily tasks for a child.</desc>
  <rect width="700" height="360" fill="#f8efe4"/>
  <path d="M106 164l244-92 244 92v128H106z" fill="#fffaf3" stroke="#b8783c" stroke-width="6"/>
  <path d="M106 164l244-92 244 92" fill="none" stroke="#c98b5f" stroke-width="14" stroke-linecap="round" stroke-linejoin="round"/>
  <rect x="156" y="192" width="172" height="82" rx="12" fill="#f7f1e8" stroke="#d8b48a" stroke-width="6"/>
  <line x1="176" y1="232" x2="308" y2="232" stroke="#d8b48a" stroke-width="6"/>
  <circle cx="206" cy="214" r="14" fill="#9dc7b6"/>
  <rect x="244" y="204" width="44" height="20" rx="10" fill="#8fa9d6"/>
  <circle cx="206" cy="254" r="14" fill="#d59a54"/>
  <rect x="244" y="244" width="44" height="20" rx="10" fill="#6f9d83"/>
  <line x1="456" y1="190" x2="456" y2="260" stroke="#7b6a58" stroke-width="8" stroke-linecap="round"/>
  <path d="M456 210c34 0 48 24 22 38" fill="none" stroke="#8fa9d6" stroke-width="12" stroke-linecap="round"/>
  <rect x="410" y="260" width="118" height="26" rx="13" fill="#c98b5f"/>
</svg>
