<svg xmlns="http://www.w3.org/2000/svg" width="700" height="360" viewBox="0 0 700 360" role="img" aria-labelledby="title desc">
  <title id="title">Prepared Montessori environment</title>
  <desc id="desc">Low shelves, child-sized furniture and ordered learning materials.</desc>
  <rect width="700" height="360" fill="#f5eee5"/>
  <rect x="76" y="92" width="548" height="176" rx="16" fill="#fffaf3" stroke="#b8783c" stroke-width="6"/>
  <line x1="104" y1="154" x2="596" y2="154" stroke="#d8b48a" stroke-width="8"/>
  <line x1="104" y1="214" x2="596" y2="214" stroke="#d8b48a" stroke-width="8"/>
  <rect x="124" y="116" width="72" height="28" rx="6" fill="#9dc7b6"/>
  <rect x="220" y="116" width="58" height="28" rx="6" fill="#d59a54"/>
  <rect x="302" y="116" width="86" height="28" rx="6" fill="#8fa9d6"/>
  <circle cx="454" cy="130" r="17" fill="#c98b5f"/>
  <circle cx="502" cy="130" r="17" fill="#6f9d83"/>
  <rect x="128" y="176" width="112" height="24" rx="12" fill="#c98b5f"/>
  <rect x="278" y="176" width="68" height="24" rx="12" fill="#9dc7b6"/>
  <rect x="386" y="176" width="130" height="24" rx="12" fill="#d59a54"/>
  <circle cx="172" cy="242" r="16" fill="#8fa9d6"/>
  <circle cx="226" cy="242" r="16" fill="#9dc7b6"/>
  <circle cx="280" cy="242" r="16" fill="#d59a54"/>
  <rect x="384" y="230" width="112" height="24" rx="12" fill="#6f9d83"/>
  <rect x="192" y="286" width="316" height="18" rx="9" fill="#b8783c" opacity=".4"/>
</svg>
